HIERARCHY
ROOT Hips
{
	OFFSET -0.179506 -22.333345 2.821913
	CHANNELS 6 Xposition Yposition Zposition Zrotation Yrotation Xrotation 
	JOINT LeftUpLeg
	{
		OFFSET 6.951974 -9.140623 -0.681533
		CHANNELS 3 Zrotation Yrotation Xrotation
		JOINT LeftLeg
		{
			OFFSET 3.427654 -37.519855 -0.449580
			CHANNELS 3 Zrotation Yrotation Xrotation
			JOINT LeftFoot
			{
				OFFSET -1.359570 -39.796059 -4.369333
				CHANNELS 3 Zrotation Yrotation Xrotation
				JOINT LeftToe
				{
					OFFSET 2.635814 -5.579078 11.928840
					CHANNELS 3 Zrotation Yrotation Xrotation
					End Site
					{
						OFFSET 0.000000 0.000000 0.000000
					}
				}
			}
		}
	}
	JOINT RightUpLeg
	{
		OFFSET -6.767048 -9.052170 -0.431982
		CHANNELS 3 Zrotation Yrotation Xrotation
		JOINT RightLeg
		{
			OFFSET -3.829005 -38.256897 -0.885003
			CHANNELS 3 Zrotation Yrotation Xrotation
			JOINT RightFoot
			{
				OFFSET 1.577377 -39.841461 -4.231180
				CHANNELS 3 Zrotation Yrotation Xrotation
				JOINT RightToe
				{
					OFFSET -2.537174 -4.814398 12.334795
					CHANNELS 3 Zrotation Yrotation Xrotation
					End Site
					{
						OFFSET 0.000000 0.000000 0.000000
					}
				}
			}
		}
	}
	JOINT Spine
	{
		OFFSET -0.253288 10.896323 -2.669631
		CHANNELS 3 Zrotation Yrotation Xrotation
		JOINT Spine1
		{
			OFFSET 0.548704 13.518043 0.109247
			CHANNELS 3 Zrotation Yrotation Xrotation
			JOINT Spine2
			{
				OFFSET 0.145701 5.292222 2.542457
				CHANNELS 3 Zrotation Yrotation Xrotation
				JOINT Neck
				{
					OFFSET -0.277840 21.387037 -4.285703
					CHANNELS 3 Zrotation Yrotation Xrotation
					JOINT Head
					{
						OFFSET 0.515184 6.496960 5.134897
						CHANNELS 3 Zrotation Yrotation Xrotation
						End Site
						{
							OFFSET 0.000000 0.000000 0.000000
						}
					}
				}
				JOINT LeftShoulder
				{
					OFFSET 7.884473 12.174932 -3.408961
					CHANNELS 3 Zrotation Yrotation Xrotation
					JOINT LeftArm
					{
						OFFSET 9.097692 3.046888 -0.886815
						CHANNELS 3 Zrotation Yrotation Xrotation
						JOINT LeftForeArm
						{
							OFFSET 25.961220 -1.277207 -2.745643
							CHANNELS 3 Zrotation Yrotation Xrotation
							JOINT LeftHand
							{
								OFFSET 24.923361 0.898606 -0.117091
								CHANNELS 3 Zrotation Yrotation Xrotation
								End Site
								{
									OFFSET 0.000000 0.000000 0.000000
								}
							}
						}
					}
				}
				JOINT RightShoulder
				{
					OFFSET -8.175920 11.883285 -3.861528
					CHANNELS 3 Zrotation Yrotation Xrotation
					JOINT RightArm
					{
						OFFSET -9.601238 3.255117 -0.914307
						CHANNELS 3 Zrotation Yrotation Xrotation
						JOINT RightForeArm
						{
							OFFSET -25.374195 -1.332924 -2.140099
							CHANNELS 3 Zrotation Yrotation Xrotation
							JOINT RightHand
							{
								OFFSET -25.529810 0.777228 -0.555919
								CHANNELS 3 Zrotation Yrotation Xrotation
								End Site
								{
									OFFSET 0.000000 0.000000 0.000000
								}
							}
						}
					}
				}
			}
		}
	}
}
MOTION
Frames: 16
Frame Time: 0.033333
0.031316 -18.593782 35.181431 176.167585 2.958257 70.590503 29.023761 19.915116 -69.788781 -12.828938 25.649073 152.936219 8.191478 1.765431 -45.947992 nan nan nan -25.362746 -18.531969 -63.378885 3.156324 -19.740437 157.678637 -8.222848 12.715851 -43.399480 nan nan nan 4.528929 -1.593972 55.214071 0.546369 0.057358 -0.380195 1.809781 3.062045 -2.232285 -8.615814 4.803155 3.640346 5.934651 -10.040224 -33.180357 -17.039089 -37.255589 12.451461 -48.133215 -22.561136 11.431758 32.452033 -65.214183 -13.724543 46.455638 -12.452475 -42.549598 17.330161 46.066563 18.045062 38.677588 16.166757 -10.711809 -44.631595 84.218488 -40.137415 -47.057693 4.857906 -60.454535 
0.026739 -18.809284 35.192085 176.322655 3.050409 71.027294 28.739267 19.839567 -70.343182 -12.655394 25.720827 152.912306 8.132452 1.840714 -45.958813 nan nan nan -25.168494 -18.701495 -63.783128 2.922575 -19.913677 157.719137 -8.199335 12.671219 -43.460379 nan nan nan 4.511197 -1.501077 54.686178 0.731401 -0.065565 -0.227130 1.935675 3.101315 -2.366227 -8.864657 4.663676 3.314508 5.990236 -9.934842 -32.899675 -17.472913 -37.613589 12.823545 -47.444504 -22.247076 11.402197 29.697086 -65.179973 -11.213174 45.847713 -12.958757 -41.906426 18.108466 46.386332 18.589675 37.639736 15.739397 -11.028548 -41.581943 84.088876 -37.701884 -46.776457 5.378683 -60.052322 
0.017397 -19.008238 35.203560 176.463044 3.105248 71.422391 28.489434 19.780695 -70.825433 -12.488485 25.785438 152.885825 8.065572 1.873587 -45.938121 nan nan nan -25.001854 -18.848229 -64.133620 2.708389 -20.068466 157.736132 -8.204787 12.628756 -43.567610 nan nan nan 4.496624 -1.410300 54.176962 0.889556 -0.179270 -0.048850 2.050685 3.137362 -2.514086 -9.100876 4.556544 3.008549 6.045371 -9.846695 -32.657952 -17.910967 -37.975274 13.207270 -46.776053 -21.942588 11.350011 27.335155 -65.114019 -9.112021 45.285370 -13.439785 -41.348520 18.865379 46.708022 19.146184 36.683267 15.309243 -11.330403 -39.667987 83.948696 -36.393823 -46.514266 5.860075 -59.758789 
0.008796 -19.197859 35.221249 176.594436 3.138993 71.805140 28.264691 19.745191 -71.274363 -12.324382 25.846395 152.857291 7.994586 1.863489 -45.884703 nan nan nan -24.852352 -18.986319 -64.478129 2.499376 -20.209272 157.756206 -8.216017 12.590739 -43.685634 nan nan nan 4.473787 -1.319367 53.686913 1.031983 -0.282213 0.132384 2.152598 3.170248 -2.678908 -9.342385 4.441764 2.697677 6.093867 -9.802463 -32.424706 -18.347743 -38.311525 13.586084 -46.148030 -21.638008 11.339443 25.028755 -65.042974 -7.026218 44.732520 -13.923507 -40.794000 19.629419 46.998804 19.703064 35.767206 14.883594 -11.596276 -38.125804 83.804709 -35.432952 -46.266081 6.325834 -59.484351 
0.003350 -19.389950 35.239426 176.747262 3.173656 72.196399 28.035014 19.699921 -71.713428 -12.181108 25.912423 152.838412 7.934390 1.846015 -45.848471 nan nan nan -24.709697 -19.142853 -64.835031 2.248362 -20.342716 157.824625 -8.190470 12.519375 -43.746254 nan nan nan 4.444315 -1.240662 53.208932 1.185760 -0.389152 0.289011 2.253849 3.197686 -2.854746 -9.593124 4.318824 2.388078 6.120515 -9.737785 -32.130958 -18.806902 -38.623364 13.970798 -45.513900 -21.325542 11.380211 22.353990 -64.880980 -4.531180 44.119897 -14.436922 -40.143516 20.412155 47.242769 20.249305 34.828249 14.445677 -11.819045 -35.477882 83.639467 -33.345514 -45.982368 6.830190 -59.109964 
0.001212 -19.339891 35.512177 177.275653 1.916975 68.572140 33.504424 16.644820 -65.432438 -14.446450 30.576891 149.230547 8.777035 -3.230605 -40.411278 nan nan nan -28.392990 -18.902448 -59.994396 3.331826 -20.529643 157.309960 -5.410848 16.190129 -42.394904 nan nan nan 3.427201 -1.882355 62.145903 0.986785 -0.836403 -8.735528 0.817125 1.639261 1.417069 -6.660212 5.117163 -2.301806 3.393395 -9.708979 -27.082276 -9.114507 -32.414446 6.457311 -55.886375 -28.943150 14.069891 63.460862 -64.766134 -43.062445 56.872551 -1.829410 -32.208396 12.552299 40.526363 8.699301 43.638299 24.153631 -0.451371 -11.833248 79.832984 4.703699 -57.347513 -1.956684 -33.742785 
0.027272 -19.101118 35.514328 177.350723 1.784871 67.893245 33.565526 16.569542 -64.901451 -14.801369 30.565926 149.240025 8.795318 -3.380472 -40.201365 nan nan nan -28.781863 -18.938133 -59.143197 3.786539 -20.355948 157.075578 -5.307403 16.170977 -42.318488 nan nan nan 3.402340 -2.091188 62.837511 0.847216 -0.892680 -8.727543 0.724048 1.631864 1.412085 -6.606564 5.228870 -2.128593 3.329846 -9.705305 -27.102338 -9.330251 -32.407115 6.636558 -55.489626 -28.896515 13.620329 63.330244 -64.402477 -41.917174 56.863429 -2.550293 -30.310027 12.607782 40.452691 8.853946 43.648938 24.203584 -0.539371 -12.149650 79.695155 4.749052 -56.512606 -1.752449 -33.314130 
0.075985 -18.883778 35.542587 177.534100 1.448325 67.071253 33.609325 16.183759 -64.011302 -15.099797 30.635725 149.102740 9.025220 -3.472722 -40.029307 nan nan nan -29.549405 -18.904726 -58.152784 4.544341 -20.553851 156.752970 -4.743899 16.421555 -41.876614 nan nan nan 3.170230 -1.829643 63.992274 1.292526 -1.236146 -8.822846 0.495737 1.794020 1.032947 -7.206694 4.209933 -1.837093 4.132487 -8.766256 -27.107547 -8.429519 -31.853853 7.331491 -55.413174 -29.030285 15.805479 64.196689 -68.384152 -50.152099 37.891546 0.854841 -48.183616 12.610723 39.606375 9.102416 44.218697 24.792236 0.926016 -20.738770 79.717566 -2.811309 -50.668606 -3.877949 -32.854049 
0.106721 -18.700409 35.553402 177.485185 1.343690 66.553607 33.615858 16.173663 -63.513104 -15.321853 30.544768 149.116997 8.891070 -3.434126 -39.990186 nan nan nan -29.575597 -18.829722 -57.622083 5.004019 -20.494424 156.523937 -4.820110 16.205189 -41.918576 nan nan nan 3.155275 -1.892309 64.608590 1.173011 -1.244422 -8.958113 0.484120 1.780617 1.129370 -7.256367 4.117188 -1.670469 4.147488 -8.693456 -27.287853 -8.625271 -31.815511 7.471753 -55.335911 -29.161613 15.672581 63.801367 -68.562404 -49.995088 37.771074 0.769298 -48.515257 12.606299 39.522685 9.176300 44.145859 24.925317 0.659275 -19.360305 79.825479 -1.479194 -50.415941 -3.833589 -32.838502 
0.218288 -18.699003 35.744621 177.902189 1.024060 65.649903 33.141691 15.604359 -62.718783 -15.766817 30.744949 148.758639 8.741252 -3.139356 -39.810679 nan nan nan -30.070630 -18.724193 -56.487113 5.300221 -20.717519 156.161536 -4.186364 15.852011 -41.697307 nan nan nan 2.762775 -1.740665 66.393454 1.223705 -1.470762 -9.990275 0.567508 1.701114 1.626063 -6.837735 4.087609 -2.442174 4.007130 -8.717710 -26.560630 -7.686830 -31.451860 6.852902 -56.005336 -29.625717 16.082129 63.152388 -68.450761 -49.349088 37.596625 0.782707 -48.570109 12.024479 39.246560 8.079270 45.059629 25.156249 1.497584 -20.734243 79.562056 -2.756065 -50.354546 -3.923907 -32.663434 
0.172375 -18.389658 35.254688 178.017831 -0.614162 64.111614 32.833822 15.345146 -61.159309 -15.940305 31.837674 149.137046 8.701851 -3.136399 -39.264740 nan nan nan -32.384854 -18.518063 -55.947520 6.135947 -20.583939 156.715921 -3.250206 16.115868 -41.356546 nan nan nan 1.687579 -0.820014 66.682621 0.788725 -2.011141 -8.742019 0.450433 1.533112 2.369005 -5.501490 4.375405 -4.341139 3.214000 -9.162174 -24.407779 -4.689526 -30.888577 5.683860 -57.566797 -30.644222 15.963282 62.586066 -68.782763 -48.397682 37.216211 1.489122 -49.476625 10.684566 38.432398 6.767763 46.488765 26.503153 2.373604 -22.791878 79.262617 -4.750614 -49.806151 -4.132792 -32.187686 
0.196597 -18.216528 35.321438 178.047697 -0.806374 63.501903 32.646220 15.296358 -60.641999 -16.160778 31.717940 149.134946 8.704737 -2.958557 -39.238069 nan nan nan -32.783234 -18.359097 -55.207404 6.430626 -20.494853 156.418773 -3.160835 16.114152 -41.229515 nan nan nan 1.542532 -0.715652 67.627453 0.788413 -2.016378 -9.004952 0.492453 1.490760 2.423844 -5.501748 4.268524 -4.128902 3.203557 -9.218621 -24.517811 -4.725452 -30.643293 5.664764 -57.756053 -30.819511 16.066540 62.107521 -68.896742 -47.982293 37.349013 1.383329 -49.801370 10.728970 38.142817 6.639977 46.648227 26.566371 2.365207 -21.852834 79.429707 -3.889152 -49.026086 -3.585288 -32.252404 
0.198375 -18.039076 35.312382 178.000603 -0.844136 63.152296 32.608604 15.366258 -60.470054 -16.320894 31.563513 149.256181 8.645334 -2.885323 -39.238659 nan nan nan -32.812370 -18.218611 -54.802543 6.745871 -20.480092 156.207683 -3.104730 15.999037 -41.198323 nan nan nan 1.585300 -0.771198 68.128274 0.743304 -1.949339 -9.080763 0.456203 1.453732 2.402254 -5.639659 4.200301 -3.777357 3.301109 -9.265094 -24.778369 -5.026475 -30.412949 5.850390 -57.616212 -30.845183 15.976588 61.805761 -69.085011 -47.672132 37.029097 1.034192 -49.579347 10.826602 37.901943 6.764336 46.613837 26.580420 2.128307 -20.692593 79.728567 -2.605171 -48.471795 -3.334230 -32.223896 
0.188945 -17.907064 35.328602 178.011583 -0.947445 62.810623 32.453395 15.375210 -60.259397 -16.437792 31.450542 149.341529 8.564005 -2.787340 -39.225108 nan nan nan -32.915321 -18.167637 -54.376902 7.007216 -20.430747 156.056265 -2.938549 15.808293 -41.119180 nan nan nan 1.610061 -0.796707 68.630661 0.698235 -1.930142 -9.137809 0.414875 1.390547 2.329285 -5.730449 4.104860 -3.413570 3.398249 -9.280218 -24.997764 -5.342697 -30.242249 6.060462 -57.240054 -30.776566 15.827257 61.732983 -69.219832 -47.442211 36.266016 0.516213 -49.252378 10.938707 37.744821 6.914858 46.610727 26.565679 2.054050 -20.919437 79.895231 -2.622479 -48.274184 -3.452126 -32.129447 
0.187249 -17.801247 35.346848 178.063442 -1.049548 62.523385 32.256492 15.356368 -60.099548 -16.539124 31.356569 149.413019 8.516026 -2.620810 -39.255235 nan nan nan -33.077089 -18.194377 -54.016535 7.208811 -20.356595 155.960191 -2.762693 15.715590 -41.012881 nan nan nan 1.576417 -0.833315 69.057792 0.687688 -1.961943 -9.261036 0.336545 1.390563 2.362091 -5.774572 3.968820 -3.098006 3.523971 -9.219272 -25.183295 -5.567002 -30.081816 6.185362 -56.908066 -30.800119 15.851456 61.748695 -69.406352 -47.268003 36.279324 0.674975 -49.418344 11.072340 37.566535 7.036128 46.724202 26.657215 2.149400 -21.832280 79.907740 -3.160709 -49.666406 -4.075147 -31.569056 
0.195822 -17.712343 35.351185 178.076252 -1.128758 62.367943 32.152512 15.371843 -60.034165 -16.604157 31.296955 149.481189 8.488307 -2.533218 -39.267487 nan nan nan -33.169823 -18.218855 -53.841732 7.365678 -20.315131 155.882825 -2.688852 15.617276 -40.942764 nan nan nan 1.538278 -0.835195 69.350672 0.702082 -1.986033 -9.528360 0.281607 1.446846 2.567464 -5.886426 3.856336 -2.910042 3.686231 -9.159984 -25.366699 -5.694621 -29.939068 6.216221 -56.823401 -30.982030 16.046118 61.598657 -69.641188 -47.106699 37.161901 1.376420 -49.936428 11.205219 37.352692 7.112206 46.736587 26.788174 2.171188 -21.785358 79.933591 -2.832026 -51.628659 -4.619066 -30.841089 
